<?xml version="1.0" encoding="utf-8"?>
<!-- Generator: Adobe Illustrator 18.0.0, SVG Export Plug-In . SVG Version: 6.00 Build 0)  -->
<!DOCTYPE svg PUBLIC "-//W3C//DTD SVG 1.1//EN" "http://www.w3.org/Graphics/SVG/1.1/DTD/svg11.dtd">
<svg version="1.1" id="Layer_1" xmlns="http://www.w3.org/2000/svg" xmlns:xlink="http://www.w3.org/1999/xlink" x="0px" y="0px"
	 viewBox="0 0 44.7 75.6" enable-background="new 0 0 44.7 75.6" xml:space="preserve">
<g>
	<g>
		<path fill="none" stroke="#FFFFFF" stroke-miterlimit="10" d="M0.9,22.5c7.8-4.9,17.4-2.1,24.2,7.2c1.6-1.6,3.2-3.2,4.8-4.8
			C20.4,17,18,9,22.5,0.9C29,1.6,35.1,9.4,35.2,17.3c0.1,8.3-6.3,16.1-14.4,17.4C11.7,36.1,3.6,31.2,0.9,22.5z M5.4,24.3
			c3,5.8,10.8,8.9,15.8,6.4C18.6,25.2,11.2,22.2,5.4,24.3z M24.5,5.3c-2.1,6,1.5,14.3,6.7,15.8C32.9,14.7,30.1,8,24.5,5.3z"/>
		<path fill="none" stroke="#FFFFFF" stroke-miterlimit="10" d="M32.1,37.8c0,3.2,2.6,5.8,5.8,5.9c3.2,0,5.9-2.5,5.9-5.8
			c0.1-3.3-2.6-6-5.9-6C34.7,31.9,32.1,34.5,32.1,37.8z M39.6,37.7c-0.1,0.6-1,1.5-1.7,1.7c-0.4,0.1-1.5-0.9-1.6-1.5
			c0-0.7,0.7-1.4,1.5-2.8C38.7,36.4,39.7,37.1,39.6,37.7z"/>
	</g>
	<path fill="none" stroke="#FFFFFF" stroke-miterlimit="10" d="M20.9,40.9c8.1,1.3,14.5,9,14.4,17.4c-0.1,7.9-6.2,15.7-12.7,16.4
		c-4.5-8.2-2.1-16.2,7.4-24.1c-1.6-1.6-3.2-3.2-4.8-4.8c-6.8,9.3-16.4,12.1-24.2,7.2C3.6,44.3,11.7,39.4,20.9,40.9z M21.3,44.8
		c-5.1-2.5-12.9,0.6-15.8,6.4C11.2,53.4,18.6,50.3,21.3,44.8z M31.2,54.5c-5.2,1.5-8.8,9.8-6.7,15.8C30.1,67.5,32.9,60.9,31.2,54.5z
		"/>
</g>
</svg>
